<?xml version="1.0" encoding="UTF-8" standalone="no"?>
<!DOCTYPE svg PUBLIC "-//W3C//DTD SVG 1.1//EN"
 "http://www.w3.org/Graphics/SVG/1.1/DTD/svg11.dtd">
<!-- Generated by graphviz version 2.50.0 (0)
 -->
<!-- Pages: 1 -->
<svg width="2879pt" height="1133pt"
 viewBox="0.00 0.00 2878.91 1133.00" xmlns="http://www.w3.org/2000/svg" xmlns:xlink="http://www.w3.org/1999/xlink">
<g id="graph0" class="graph" transform="scale(1 1) rotate(0) translate(4 1129)">
<polygon fill="white" stroke="transparent" points="-4,4 -4,-1129 2874.91,-1129 2874.91,4 -4,4"/>
<!-- node0 -->
<g id="node1" class="node">
<title>node0</title>
<ellipse fill="none" stroke="black" cx="389.91" cy="-324" rx="36.29" ry="18"/>
<text text-anchor="middle" x="389.91" y="-320.3" font-family="serif" font-size="14.00">Select</text>
</g>
<!-- node84 -->
<g id="node85" class="node">
<title>node84</title>
<polygon fill="none" stroke="black" points="352.39,-231.44 389.91,-219 427.43,-231.44 427.39,-251.56 352.43,-251.56 352.39,-231.44"/>
<text text-anchor="middle" x="389.91" y="-233.3" font-family="serif" font-size="14.00">data</text>
</g>
<!-- node0&#45;&gt;node84 -->
<g id="edge116" class="edge">
<title>node0&#45;&gt;node84</title>
<path fill="none" stroke="black" d="M389.91,-305.8C389.91,-293.24 389.91,-276.06 389.91,-262.13"/>
<polygon fill="black" stroke="black" points="393.41,-261.81 389.91,-251.81 386.41,-261.81 393.41,-261.81"/>
</g>
<!-- node1 -->
<g id="node2" class="node">
<title>node1</title>
<ellipse fill="none" stroke="black" cx="516.91" cy="-411" rx="27" ry="18"/>
<text text-anchor="middle" x="516.91" y="-407.3" font-family="serif" font-size="14.00">Eq</text>
</g>
<!-- node1&#45;&gt;node0 -->
<g id="edge3" class="edge">
<title>node1&#45;&gt;node0</title>
<path fill="none" stroke="black" d="M498.44,-397.64C477.73,-383.78 443.86,-361.11 419.46,-344.78"/>
<polygon fill="black" stroke="black" points="421.2,-341.73 410.94,-339.07 417.3,-347.54 421.2,-341.73"/>
</g>
<!-- node2 -->
<g id="node3" class="node">
<title>node2</title>
<polygon fill="none" stroke="black" points="626.29,-503.56 532.91,-516 439.53,-503.56 439.61,-483.44 626.21,-483.44 626.29,-503.56"/>
<text text-anchor="middle" x="532.91" y="-494.3" font-family="serif" font-size="14.00">read_tensor_id</text>
</g>
<!-- node2&#45;&gt;node1 -->
<g id="edge1" class="edge">
<title>node2&#45;&gt;node1</title>
<path fill="none" stroke="black" d="M530.34,-483.34C528.11,-471.49 524.81,-453.96 522.04,-439.24"/>
<polygon fill="black" stroke="black" points="525.43,-438.33 520.14,-429.15 518.55,-439.62 525.43,-438.33"/>
<text text-anchor="middle" x="532.91" y="-450.8" font-family="serif" font-size="14.00">16</text>
</g>
<!-- node3 -->
<g id="node4" class="node">
<title>node3</title>
<path fill="none" stroke="black" d="M409.41,-516C409.41,-516 270.41,-516 270.41,-516 264.41,-516 258.41,-510 258.41,-504 258.41,-504 258.41,-492 258.41,-492 258.41,-486 264.41,-480 270.41,-480 270.41,-480 409.41,-480 409.41,-480 415.41,-480 421.41,-486 421.41,-492 421.41,-492 421.41,-504 421.41,-504 421.41,-510 415.41,-516 409.41,-516"/>
<text text-anchor="middle" x="339.91" y="-494.3" font-family="serif" font-size="14.00">16&#39;b0000000000000000</text>
</g>
<!-- node3&#45;&gt;node1 -->
<g id="edge2" class="edge">
<title>node3&#45;&gt;node1</title>
<path fill="none" stroke="black" d="M375.73,-479.8C408.18,-464.22 455.48,-441.5 486.23,-426.73"/>
<polygon fill="black" stroke="black" points="488.09,-429.72 495.59,-422.24 485.06,-423.41 488.09,-429.72"/>
<text text-anchor="middle" x="446.91" y="-450.8" font-family="serif" font-size="14.00">16</text>
</g>
<!-- node4 -->
<g id="node5" class="node">
<title>node4</title>
<polygon fill="none" stroke="black" points="218.09,-393 271.73,-393 290.83,-429 198.99,-429 218.09,-393"/>
<text text-anchor="middle" x="244.91" y="-407.3" font-family="serif" font-size="14.00">Read</text>
</g>
<!-- node4&#45;&gt;node0 -->
<g id="edge114" class="edge">
<title>node4&#45;&gt;node0</title>
<path fill="none" stroke="black" d="M272.52,-393.81C296.97,-379.48 332.63,-358.58 358.23,-343.57"/>
<polygon fill="black" stroke="black" points="360.31,-346.41 367.16,-338.33 356.77,-340.37 360.31,-346.41"/>
</g>
<!-- node5 -->
<g id="node6" class="node">
<title>node5</title>
<polygon fill="none" stroke="black" points="147.73,-503.56 73.91,-516 0.09,-503.56 0.16,-483.44 147.66,-483.44 147.73,-503.56"/>
<text text-anchor="middle" x="73.91" y="-494.3" font-family="serif" font-size="14.00">read_index</text>
</g>
<!-- node5&#45;&gt;node4 -->
<g id="edge4" class="edge">
<title>node5&#45;&gt;node4</title>
<path fill="none" stroke="black" d="M101.38,-483.34C128.37,-469.93 169.94,-449.26 201.42,-433.62"/>
<polygon fill="black" stroke="black" points="203.02,-436.73 210.42,-429.15 199.91,-430.46 203.02,-436.73"/>
<text text-anchor="middle" x="177.91" y="-450.8" font-family="serif" font-size="14.00">16</text>
</g>
<!-- node6 -->
<g id="node7" class="node">
<title>node6</title>
<polygon fill="none" stroke="black" points="239.91,-516 165.91,-516 165.91,-480 239.91,-480 239.91,-516"/>
<text text-anchor="middle" x="202.91" y="-494.3" font-family="serif" font-size="14.00">memory</text>
</g>
<!-- node6&#45;&gt;node4 -->
<g id="edge113" class="edge">
<title>node6&#45;&gt;node4</title>
<path fill="none" stroke="black" d="M211.41,-479.8C217.27,-467.93 225.18,-451.93 231.84,-438.45"/>
<polygon fill="black" stroke="black" points="235.13,-439.69 236.42,-429.18 228.86,-436.59 235.13,-439.69"/>
</g>
<!-- node82 -->
<g id="node83" class="node">
<title>node82</title>
<polygon fill="none" stroke="black" points="739.09,-393 792.73,-393 811.83,-429 719.99,-429 739.09,-393"/>
<text text-anchor="middle" x="765.91" y="-407.3" font-family="serif" font-size="14.00">Read</text>
</g>
<!-- node6&#45;&gt;node82 -->
<g id="edge108" class="edge">
<title>node6&#45;&gt;node82</title>
<path fill="none" stroke="black" d="M240.05,-482.24C243.02,-481.38 245.99,-480.61 248.91,-480 377.89,-452.86 414.43,-480.6 544.91,-462 602.84,-453.74 668.06,-438.2 712.55,-426.63"/>
<polygon fill="black" stroke="black" points="713.49,-430 722.27,-424.07 711.71,-423.23 713.49,-430"/>
</g>
<!-- node7 -->
<g id="node8" class="node">
<title>node7</title>
<polygon fill="none" stroke="black" points="1579.85,-1112.56 1538.91,-1125 1497.97,-1112.56 1498,-1092.44 1579.82,-1092.44 1579.85,-1112.56"/>
<text text-anchor="middle" x="1538.91" y="-1103.3" font-family="serif" font-size="14.00">clock</text>
</g>
<!-- node7&#45;&gt;node6 -->
<g id="edge5" class="edge">
<title>node7&#45;&gt;node6</title>
<path fill="none" stroke="black" d="M1497.73,-1105.1C1294.68,-1100.39 409.91,-1076.68 409.91,-1021 409.91,-1021 409.91,-1021 409.91,-584 409.91,-579.69 310.39,-540.49 249.36,-516.86"/>
<polygon fill="black" stroke="black" points="250.51,-513.55 239.92,-513.21 247.98,-520.08 250.51,-513.55"/>
</g>
<!-- node10 -->
<g id="node11" class="node">
<title>node10</title>
<polygon fill="none" stroke="black" points="2518.91,-1038 2464.91,-1038 2464.91,-1002 2518.91,-1002 2518.91,-1038"/>
<text text-anchor="middle" x="2491.91" y="-1016.3" font-family="serif" font-size="14.00">Reg</text>
</g>
<!-- node7&#45;&gt;node10 -->
<g id="edge8" class="edge">
<title>node7&#45;&gt;node10</title>
<path fill="none" stroke="black" d="M1579.98,-1104.95C1732.6,-1100.73 2267.51,-1083.19 2455.06,-1037.55"/>
<polygon fill="black" stroke="black" points="2455.96,-1040.93 2464.79,-1035.07 2454.23,-1034.15 2455.96,-1040.93"/>
<text text-anchor="middle" x="2348.91" y="-1059.8" font-family="serif" font-size="14.00">1</text>
</g>
<!-- node28 -->
<g id="node29" class="node">
<title>node28</title>
<polygon fill="none" stroke="black" points="948.41,-777 863.41,-777 863.41,-741 948.41,-741 948.41,-777"/>
<text text-anchor="middle" x="905.91" y="-755.3" font-family="serif" font-size="14.00">Reg (iter0)</text>
</g>
<!-- node7&#45;&gt;node28 -->
<g id="edge22" class="edge">
<title>node7&#45;&gt;node28</title>
<path fill="none" stroke="black" d="M1497.87,-1104.82C1357.6,-1100.27 905.91,-1080.95 905.91,-1021 905.91,-1021 905.91,-1021 905.91,-845 905.91,-825.75 905.91,-804.05 905.91,-787.4"/>
<polygon fill="black" stroke="black" points="909.41,-787.26 905.91,-777.26 902.41,-787.26 909.41,-787.26"/>
<text text-anchor="middle" x="909.91" y="-929.3" font-family="serif" font-size="14.00">1</text>
</g>
<!-- node35 -->
<g id="node36" class="node">
<title>node35</title>
<polygon fill="none" stroke="black" points="1839.41,-777 1754.41,-777 1754.41,-741 1839.41,-741 1839.41,-777"/>
<text text-anchor="middle" x="1796.91" y="-755.3" font-family="serif" font-size="14.00">Reg (iter1)</text>
</g>
<!-- node7&#45;&gt;node35 -->
<g id="edge25" class="edge">
<title>node7&#45;&gt;node35</title>
<path fill="none" stroke="black" d="M1580.08,-1103.35C1664.4,-1096.78 1848.91,-1076.11 1848.91,-1021 1848.91,-1021 1848.91,-1021 1848.91,-845 1848.91,-822.31 1835.26,-800.56 1821.95,-784.75"/>
<polygon fill="black" stroke="black" points="1824.36,-782.18 1815.1,-777.04 1819.13,-786.84 1824.36,-782.18"/>
<text text-anchor="middle" x="1852.91" y="-929.3" font-family="serif" font-size="14.00">1</text>
</g>
<!-- node41 -->
<g id="node42" class="node">
<title>node41</title>
<polygon fill="none" stroke="black" points="1706.41,-777 1621.41,-777 1621.41,-741 1706.41,-741 1706.41,-777"/>
<text text-anchor="middle" x="1663.91" y="-755.3" font-family="serif" font-size="14.00">Reg (iter2)</text>
</g>
<!-- node7&#45;&gt;node41 -->
<g id="edge28" class="edge">
<title>node7&#45;&gt;node41</title>
<path fill="none" stroke="black" d="M1538.91,-1092.16C1538.91,-1075.34 1538.91,-1046.09 1538.91,-1021 1538.91,-1021 1538.91,-1021 1538.91,-845 1538.91,-825.37 1581.61,-799.65 1617.1,-781.66"/>
<polygon fill="black" stroke="black" points="1619.01,-784.62 1626.41,-777.03 1615.89,-778.35 1619.01,-784.62"/>
<text text-anchor="middle" x="1542.91" y="-929.3" font-family="serif" font-size="14.00">1</text>
</g>
<!-- node8 -->
<g id="node9" class="node">
<title>node8</title>
<polygon fill="none" stroke="black" points="702.96,-36 642.87,-36 621.46,0 724.36,0 702.96,-36"/>
<text text-anchor="middle" x="672.91" y="-14.3" font-family="serif" font-size="14.00">Write</text>
</g>
<!-- node8&#45;&gt;node6 -->
<g id="edge6" class="edge">
<title>node8&#45;&gt;node6</title>
<path fill="none" stroke="black" d="M633.52,-20.44C515.18,-25.27 170.91,-43.35 170.91,-90 170.91,-412 170.91,-412 170.91,-412 170.91,-432.69 179.32,-454.51 187.52,-470.86"/>
<polygon fill="black" stroke="black" points="184.48,-472.6 192.25,-479.8 190.67,-469.33 184.48,-472.6"/>
</g>
<!-- node9 -->
<g id="node10" class="node">
<title>node9</title>
<ellipse fill="none" stroke="black" cx="756.91" cy="-933" rx="27" ry="18"/>
<text text-anchor="middle" x="756.91" y="-929.3" font-family="serif" font-size="14.00">Eq</text>
</g>
<!-- node9&#45;&gt;node8 -->
<g id="edge110" class="edge">
<title>node9&#45;&gt;node8</title>
<path fill="none" stroke="black" d="M733.02,-924.24C702.59,-912.68 653.91,-887.81 653.91,-847 653.91,-847 653.91,-847 653.91,-90 653.91,-75.1 657.86,-59.02 662.16,-45.93"/>
<polygon fill="black" stroke="black" points="665.59,-46.76 665.62,-36.16 658.99,-44.43 665.59,-46.76"/>
</g>
<!-- node10&#45;&gt;node9 -->
<g id="edge81" class="edge">
<title>node10&#45;&gt;node9</title>
<path fill="none" stroke="black" d="M2464.82,-1004.8C2461.87,-1003.68 2458.87,-1002.71 2455.91,-1002 2413.44,-991.75 927.45,-954.61 883.91,-951 853.12,-948.45 818.37,-943.66 793.01,-939.82"/>
<polygon fill="black" stroke="black" points="793.51,-936.35 783.1,-938.29 792.45,-943.27 793.51,-936.35"/>
<text text-anchor="middle" x="1986.91" y="-972.8" font-family="serif" font-size="14.00">2</text>
</g>
<!-- node13 -->
<g id="node14" class="node">
<title>node13</title>
<ellipse fill="none" stroke="black" cx="2755.91" cy="-933" rx="27" ry="18"/>
<text text-anchor="middle" x="2755.91" y="-929.3" font-family="serif" font-size="14.00">Eq</text>
</g>
<!-- node10&#45;&gt;node13 -->
<g id="edge9" class="edge">
<title>node10&#45;&gt;node13</title>
<path fill="none" stroke="black" d="M2519.17,-1010.22C2567.81,-994.56 2669.4,-961.85 2722.29,-944.83"/>
<polygon fill="black" stroke="black" points="2723.43,-948.13 2731.88,-941.74 2721.29,-941.47 2723.43,-948.13"/>
<text text-anchor="middle" x="2642.91" y="-972.8" font-family="serif" font-size="14.00">2</text>
</g>
<!-- node23 -->
<g id="node24" class="node">
<title>node23</title>
<ellipse fill="none" stroke="black" cx="2094.91" cy="-933" rx="27" ry="18"/>
<text text-anchor="middle" x="2094.91" y="-929.3" font-family="serif" font-size="14.00">Eq</text>
</g>
<!-- node10&#45;&gt;node23 -->
<g id="edge18" class="edge">
<title>node10&#45;&gt;node23</title>
<path fill="none" stroke="black" d="M2477.04,-1001.55C2466.29,-990.23 2450.76,-976.27 2433.91,-969 2380.4,-945.92 2208.52,-937.64 2132.12,-935.04"/>
<polygon fill="black" stroke="black" points="2132.1,-931.54 2121.99,-934.71 2131.88,-938.54 2132.1,-931.54"/>
<text text-anchor="middle" x="2460.91" y="-972.8" font-family="serif" font-size="14.00">2</text>
</g>
<!-- node57 -->
<g id="node58" class="node">
<title>node57</title>
<ellipse fill="none" stroke="black" cx="2469.91" cy="-846" rx="36.29" ry="18"/>
<text text-anchor="middle" x="2469.91" y="-842.3" font-family="serif" font-size="14.00">Select</text>
</g>
<!-- node10&#45;&gt;node57 -->
<g id="edge77" class="edge">
<title>node10&#45;&gt;node57</title>
<path fill="none" stroke="black" d="M2498.12,-1001.85C2504.75,-981.06 2513.38,-945.06 2505.91,-915 2502.14,-899.81 2494.28,-884.29 2486.87,-871.91"/>
<polygon fill="black" stroke="black" points="2489.63,-869.74 2481.36,-863.12 2483.7,-873.45 2489.63,-869.74"/>
<text text-anchor="middle" x="2511.91" y="-929.3" font-family="serif" font-size="14.00">2</text>
</g>
<!-- node58 -->
<g id="node59" class="node">
<title>node58</title>
<ellipse fill="none" stroke="black" cx="2469.91" cy="-933" rx="27" ry="18"/>
<text text-anchor="middle" x="2469.91" y="-929.3" font-family="serif" font-size="14.00">Eq</text>
</g>
<!-- node10&#45;&gt;node58 -->
<g id="edge73" class="edge">
<title>node10&#45;&gt;node58</title>
<path fill="none" stroke="black" d="M2487.46,-1001.8C2484.4,-989.97 2480.27,-974.03 2476.79,-960.58"/>
<polygon fill="black" stroke="black" points="2480.17,-959.69 2474.28,-950.89 2473.4,-961.44 2480.17,-959.69"/>
<text text-anchor="middle" x="2485.91" y="-972.8" font-family="serif" font-size="14.00">2</text>
</g>
<!-- node11 -->
<g id="node12" class="node">
<title>node11</title>
<path fill="none" stroke="black" d="M2506.91,-1125C2506.91,-1125 2476.91,-1125 2476.91,-1125 2470.91,-1125 2464.91,-1119 2464.91,-1113 2464.91,-1113 2464.91,-1101 2464.91,-1101 2464.91,-1095 2470.91,-1089 2476.91,-1089 2476.91,-1089 2506.91,-1089 2506.91,-1089 2512.91,-1089 2518.91,-1095 2518.91,-1101 2518.91,-1101 2518.91,-1113 2518.91,-1113 2518.91,-1119 2512.91,-1125 2506.91,-1125"/>
<text text-anchor="middle" x="2491.91" y="-1103.3" font-family="serif" font-size="14.00">2&#39;b00</text>
</g>
<!-- node11&#45;&gt;node10 -->
<g id="edge7" class="edge">
<title>node11&#45;&gt;node10</title>
<path fill="none" stroke="black" d="M2491.91,-1088.8C2491.91,-1077.16 2491.91,-1061.55 2491.91,-1048.24"/>
<polygon fill="black" stroke="black" points="2495.41,-1048.18 2491.91,-1038.18 2488.41,-1048.18 2495.41,-1048.18"/>
<text text-anchor="middle" x="2495.91" y="-1059.8" font-family="serif" font-size="14.00">2</text>
</g>
<!-- node12 -->
<g id="node13" class="node">
<title>node12</title>
<ellipse fill="none" stroke="black" cx="2730.91" cy="-164" rx="36.29" ry="18"/>
<text text-anchor="middle" x="2730.91" y="-160.3" font-family="serif" font-size="14.00">Select</text>
</g>
<!-- node12&#45;&gt;node10 -->
<g id="edge80" class="edge">
<title>node12&#45;&gt;node10</title>
<path fill="none" stroke="black" d="M2758.44,-175.99C2781.58,-187.26 2810.91,-207.22 2810.91,-236 2810.91,-934 2810.91,-934 2810.91,-934 2810.91,-991.71 2613.5,-1011.23 2529.27,-1016.92"/>
<polygon fill="black" stroke="black" points="2528.86,-1013.44 2519.11,-1017.58 2529.31,-1020.43 2528.86,-1013.44"/>
</g>
<!-- node13&#45;&gt;node12 -->
<g id="edge11" class="edge">
<title>node13&#45;&gt;node12</title>
<path fill="none" stroke="black" d="M2761.29,-915.26C2766.27,-898.26 2772.91,-871.08 2772.91,-847 2772.91,-847 2772.91,-847 2772.91,-236 2772.91,-218.38 2763.21,-201.29 2753.13,-188.3"/>
<polygon fill="black" stroke="black" points="2755.63,-185.84 2746.55,-180.39 2750.25,-190.32 2755.63,-185.84"/>
</g>
<!-- node14 -->
<g id="node15" class="node">
<title>node14</title>
<path fill="none" stroke="black" d="M2858.91,-1038C2858.91,-1038 2828.91,-1038 2828.91,-1038 2822.91,-1038 2816.91,-1032 2816.91,-1026 2816.91,-1026 2816.91,-1014 2816.91,-1014 2816.91,-1008 2822.91,-1002 2828.91,-1002 2828.91,-1002 2858.91,-1002 2858.91,-1002 2864.91,-1002 2870.91,-1008 2870.91,-1014 2870.91,-1014 2870.91,-1026 2870.91,-1026 2870.91,-1032 2864.91,-1038 2858.91,-1038"/>
<text text-anchor="middle" x="2843.91" y="-1016.3" font-family="serif" font-size="14.00">2&#39;b00</text>
</g>
<!-- node14&#45;&gt;node13 -->
<g id="edge10" class="edge">
<title>node14&#45;&gt;node13</title>
<path fill="none" stroke="black" d="M2826.1,-1001.8C2812.25,-988.41 2792.94,-969.77 2778.08,-955.42"/>
<polygon fill="black" stroke="black" points="2780.39,-952.78 2770.77,-948.35 2775.53,-957.82 2780.39,-952.78"/>
<text text-anchor="middle" x="2808.91" y="-972.8" font-family="serif" font-size="14.00">2</text>
</g>
<!-- node15 -->
<g id="node16" class="node">
<title>node15</title>
<ellipse fill="none" stroke="black" cx="2650.91" cy="-237" rx="36.29" ry="18"/>
<text text-anchor="middle" x="2650.91" y="-233.3" font-family="serif" font-size="14.00">Select</text>
</g>
<!-- node15&#45;&gt;node12 -->
<g id="edge17" class="edge">
<title>node15&#45;&gt;node12</title>
<path fill="none" stroke="black" d="M2667.88,-220.94C2679.01,-211.06 2693.76,-197.97 2706.2,-186.93"/>
<polygon fill="black" stroke="black" points="2708.81,-189.29 2713.97,-180.04 2704.17,-184.06 2708.81,-189.29"/>
</g>
<!-- node16 -->
<g id="node17" class="node">
<title>node16</title>
<ellipse fill="none" stroke="black" cx="2698.91" cy="-324" rx="27" ry="18"/>
<text text-anchor="middle" x="2698.91" y="-320.3" font-family="serif" font-size="14.00">Eq</text>
</g>
<!-- node16&#45;&gt;node15 -->
<g id="edge14" class="edge">
<title>node16&#45;&gt;node15</title>
<path fill="none" stroke="black" d="M2689.88,-307.01C2682.93,-294.7 2673.19,-277.46 2665.19,-263.28"/>
<polygon fill="black" stroke="black" points="2668.19,-261.48 2660.23,-254.5 2662.1,-264.92 2668.19,-261.48"/>
</g>
<!-- node17 -->
<g id="node18" class="node">
<title>node17</title>
<polygon fill="none" stroke="black" points="2744.5,-416.56 2698.91,-429 2653.32,-416.56 2653.37,-396.44 2744.45,-396.44 2744.5,-416.56"/>
<text text-anchor="middle" x="2698.91" y="-407.3" font-family="serif" font-size="14.00">target</text>
</g>
<!-- node17&#45;&gt;node16 -->
<g id="edge12" class="edge">
<title>node17&#45;&gt;node16</title>
<path fill="none" stroke="black" d="M2698.91,-396.34C2698.91,-384.49 2698.91,-366.96 2698.91,-352.24"/>
<polygon fill="black" stroke="black" points="2702.41,-352.15 2698.91,-342.15 2695.41,-352.15 2702.41,-352.15"/>
<text text-anchor="middle" x="2706.91" y="-363.8" font-family="serif" font-size="14.00">16</text>
</g>
<!-- node18 -->
<g id="node19" class="node">
<title>node18</title>
<path fill="none" stroke="black" d="M2623.41,-429C2623.41,-429 2484.41,-429 2484.41,-429 2478.41,-429 2472.41,-423 2472.41,-417 2472.41,-417 2472.41,-405 2472.41,-405 2472.41,-399 2478.41,-393 2484.41,-393 2484.41,-393 2623.41,-393 2623.41,-393 2629.41,-393 2635.41,-399 2635.41,-405 2635.41,-405 2635.41,-417 2635.41,-417 2635.41,-423 2629.41,-429 2623.41,-429"/>
<text text-anchor="middle" x="2553.91" y="-407.3" font-family="serif" font-size="14.00">16&#39;b0000000000000000</text>
</g>
<!-- node18&#45;&gt;node16 -->
<g id="edge13" class="edge">
<title>node18&#45;&gt;node16</title>
<path fill="none" stroke="black" d="M2583.25,-392.8C2608.75,-377.85 2645.45,-356.34 2670.64,-341.57"/>
<polygon fill="black" stroke="black" points="2672.49,-344.54 2679.35,-336.47 2668.95,-338.5 2672.49,-344.54"/>
<text text-anchor="middle" x="2642.91" y="-363.8" font-family="serif" font-size="14.00">16</text>
</g>
<!-- node19 -->
<g id="node20" class="node">
<title>node19</title>
<path fill="none" stroke="black" d="M2569.91,-342C2569.91,-342 2539.91,-342 2539.91,-342 2533.91,-342 2527.91,-336 2527.91,-330 2527.91,-330 2527.91,-318 2527.91,-318 2527.91,-312 2533.91,-306 2539.91,-306 2539.91,-306 2569.91,-306 2569.91,-306 2575.91,-306 2581.91,-312 2581.91,-318 2581.91,-318 2581.91,-330 2581.91,-330 2581.91,-336 2575.91,-342 2569.91,-342"/>
<text text-anchor="middle" x="2554.91" y="-320.3" font-family="serif" font-size="14.00">2&#39;b01</text>
</g>
<!-- node19&#45;&gt;node15 -->
<g id="edge15" class="edge">
<title>node19&#45;&gt;node15</title>
<path fill="none" stroke="black" d="M2574.34,-305.8C2589.31,-292.54 2610.11,-274.12 2626.26,-259.83"/>
<polygon fill="black" stroke="black" points="2628.6,-262.43 2633.76,-253.18 2623.96,-257.19 2628.6,-262.43"/>
<text text-anchor="middle" x="2611.91" y="-276.8" font-family="serif" font-size="14.00">2</text>
</g>
<!-- node20 -->
<g id="node21" class="node">
<title>node20</title>
<path fill="none" stroke="black" d="M2641.91,-342C2641.91,-342 2611.91,-342 2611.91,-342 2605.91,-342 2599.91,-336 2599.91,-330 2599.91,-330 2599.91,-318 2599.91,-318 2599.91,-312 2605.91,-306 2611.91,-306 2611.91,-306 2641.91,-306 2641.91,-306 2647.91,-306 2653.91,-312 2653.91,-318 2653.91,-318 2653.91,-330 2653.91,-330 2653.91,-336 2647.91,-342 2641.91,-342"/>
<text text-anchor="middle" x="2626.91" y="-320.3" font-family="serif" font-size="14.00">2&#39;b00</text>
</g>
<!-- node20&#45;&gt;node15 -->
<g id="edge16" class="edge">
<title>node20&#45;&gt;node15</title>
<path fill="none" stroke="black" d="M2631.77,-305.8C2635.11,-293.97 2639.61,-278.03 2643.41,-264.58"/>
<polygon fill="black" stroke="black" points="2646.79,-265.46 2646.14,-254.89 2640.06,-263.56 2646.79,-265.46"/>
<text text-anchor="middle" x="2643.91" y="-276.8" font-family="serif" font-size="14.00">2</text>
</g>
<!-- node21 -->
<g id="node22" class="node">
<title>node21</title>
<ellipse fill="none" stroke="black" cx="2416.91" cy="-237" rx="36.29" ry="18"/>
<text text-anchor="middle" x="2416.91" y="-233.3" font-family="serif" font-size="14.00">Select</text>
</g>
<!-- node21&#45;&gt;node12 -->
<g id="edge79" class="edge">
<title>node21&#45;&gt;node12</title>
<path fill="none" stroke="black" d="M2449.33,-228.67C2506.33,-215.78 2624.46,-189.07 2688.09,-174.68"/>
<polygon fill="black" stroke="black" points="2689.21,-178.02 2698.2,-172.4 2687.67,-171.19 2689.21,-178.02"/>
</g>
<!-- node22 -->
<g id="node23" class="node">
<title>node22</title>
<ellipse fill="none" stroke="black" cx="2314.91" cy="-324" rx="28.7" ry="18"/>
<text text-anchor="middle" x="2314.91" y="-320.3" font-family="serif" font-size="14.00">And</text>
</g>
<!-- node22&#45;&gt;node21 -->
<g id="edge71" class="edge">
<title>node22&#45;&gt;node21</title>
<path fill="none" stroke="black" d="M2331.75,-308.96C2347.92,-295.49 2372.56,-274.96 2391.19,-259.44"/>
<polygon fill="black" stroke="black" points="2393.57,-262.01 2399.01,-252.92 2389.09,-256.63 2393.57,-262.01"/>
</g>
<!-- node23&#45;&gt;node22 -->
<g id="edge20" class="edge">
<title>node23&#45;&gt;node22</title>
<path fill="none" stroke="black" d="M2121.7,-930.43C2197.13,-925.27 2405.91,-905.7 2405.91,-847 2405.91,-847 2405.91,-847 2405.91,-410 2405.91,-377.08 2373.7,-353.24 2347.61,-339.34"/>
<polygon fill="black" stroke="black" points="2348.85,-336.04 2338.35,-334.66 2345.7,-342.29 2348.85,-336.04"/>
</g>
<!-- node30 -->
<g id="node31" class="node">
<title>node30</title>
<ellipse fill="none" stroke="black" cx="1154.91" cy="-846" rx="36.29" ry="18"/>
<text text-anchor="middle" x="1154.91" y="-842.3" font-family="serif" font-size="14.00">Select</text>
</g>
<!-- node23&#45;&gt;node30 -->
<g id="edge23" class="edge">
<title>node23&#45;&gt;node30</title>
<path fill="none" stroke="black" d="M2068.29,-929.59C1938.05,-917.82 1367.46,-866.22 1200.78,-851.15"/>
<polygon fill="black" stroke="black" points="1200.67,-847.62 1190.4,-850.21 1200.04,-854.6 1200.67,-847.62"/>
</g>
<!-- node37 -->
<g id="node38" class="node">
<title>node37</title>
<ellipse fill="none" stroke="black" cx="2094.91" cy="-846" rx="36.29" ry="18"/>
<text text-anchor="middle" x="2094.91" y="-842.3" font-family="serif" font-size="14.00">Select</text>
</g>
<!-- node23&#45;&gt;node37 -->
<g id="edge26" class="edge">
<title>node23&#45;&gt;node37</title>
<path fill="none" stroke="black" d="M2094.91,-914.8C2094.91,-903.16 2094.91,-887.55 2094.91,-874.24"/>
<polygon fill="black" stroke="black" points="2098.41,-874.18 2094.91,-864.18 2091.41,-874.18 2098.41,-874.18"/>
</g>
<!-- node43 -->
<g id="node44" class="node">
<title>node43</title>
<ellipse fill="none" stroke="black" cx="1602.91" cy="-846" rx="36.29" ry="18"/>
<text text-anchor="middle" x="1602.91" y="-842.3" font-family="serif" font-size="14.00">Select</text>
</g>
<!-- node23&#45;&gt;node43 -->
<g id="edge29" class="edge">
<title>node23&#45;&gt;node43</title>
<path fill="none" stroke="black" d="M2068.14,-929.82C1998.26,-923.74 1804.95,-904.28 1648.91,-864 1645.96,-863.24 1642.93,-862.35 1639.9,-861.4"/>
<polygon fill="black" stroke="black" points="1640.95,-858.06 1630.35,-858.17 1638.7,-864.69 1640.95,-858.06"/>
</g>
<!-- node24 -->
<g id="node25" class="node">
<title>node24</title>
<path fill="none" stroke="black" d="M2109.91,-1038C2109.91,-1038 2079.91,-1038 2079.91,-1038 2073.91,-1038 2067.91,-1032 2067.91,-1026 2067.91,-1026 2067.91,-1014 2067.91,-1014 2067.91,-1008 2073.91,-1002 2079.91,-1002 2079.91,-1002 2109.91,-1002 2109.91,-1002 2115.91,-1002 2121.91,-1008 2121.91,-1014 2121.91,-1014 2121.91,-1026 2121.91,-1026 2121.91,-1032 2115.91,-1038 2109.91,-1038"/>
<text text-anchor="middle" x="2094.91" y="-1016.3" font-family="serif" font-size="14.00">2&#39;b11</text>
</g>
<!-- node24&#45;&gt;node23 -->
<g id="edge19" class="edge">
<title>node24&#45;&gt;node23</title>
<path fill="none" stroke="black" d="M2094.91,-1001.8C2094.91,-990.16 2094.91,-974.55 2094.91,-961.24"/>
<polygon fill="black" stroke="black" points="2098.41,-961.18 2094.91,-951.18 2091.41,-961.18 2098.41,-961.18"/>
<text text-anchor="middle" x="2098.91" y="-972.8" font-family="serif" font-size="14.00">2</text>
</g>
<!-- node25 -->
<g id="node26" class="node">
<title>node25</title>
<ellipse fill="none" stroke="black" cx="1648.91" cy="-411" rx="28.7" ry="18"/>
<text text-anchor="middle" x="1648.91" y="-407.3" font-family="serif" font-size="14.00">And</text>
</g>
<!-- node25&#45;&gt;node22 -->
<g id="edge70" class="edge">
<title>node25&#45;&gt;node22</title>
<path fill="none" stroke="black" d="M1676.68,-406.46C1781.83,-393.04 2155.68,-345.32 2276.76,-329.87"/>
<polygon fill="black" stroke="black" points="2277.55,-333.3 2287.02,-328.56 2276.66,-326.35 2277.55,-333.3"/>
</g>
<!-- node26 -->
<g id="node27" class="node">
<title>node26</title>
<ellipse fill="none" stroke="black" cx="1344.91" cy="-585" rx="27" ry="18"/>
<text text-anchor="middle" x="1344.91" y="-581.3" font-family="serif" font-size="14.00">Eq</text>
</g>
<!-- node26&#45;&gt;node25 -->
<g id="edge68" class="edge">
<title>node26&#45;&gt;node25</title>
<path fill="none" stroke="black" d="M1364.86,-572.71C1417,-543.21 1557.58,-463.67 1619.24,-428.79"/>
<polygon fill="black" stroke="black" points="1621.11,-431.75 1628.09,-423.78 1617.66,-425.66 1621.11,-431.75"/>
</g>
<!-- node52 -->
<g id="node53" class="node">
<title>node52</title>
<ellipse fill="none" stroke="black" cx="1097.91" cy="-498" rx="36.29" ry="18"/>
<text text-anchor="middle" x="1097.91" y="-494.3" font-family="serif" font-size="14.00">Select</text>
</g>
<!-- node26&#45;&gt;node52 -->
<g id="edge56" class="edge">
<title>node26&#45;&gt;node52</title>
<path fill="none" stroke="black" d="M1321.23,-575.85C1278.58,-561.17 1188.48,-530.17 1136.71,-512.35"/>
<polygon fill="black" stroke="black" points="1137.79,-509.02 1127.2,-509.08 1135.52,-515.64 1137.79,-509.02"/>
</g>
<!-- node27 -->
<g id="node28" class="node">
<title>node27</title>
<ellipse fill="none" stroke="black" cx="1047.91" cy="-672" rx="27.9" ry="18"/>
<text text-anchor="middle" x="1047.91" y="-668.3" font-family="serif" font-size="14.00">Add</text>
</g>
<!-- node27&#45;&gt;node26 -->
<g id="edge66" class="edge">
<title>node27&#45;&gt;node26</title>
<path fill="none" stroke="black" d="M1070.24,-661.16C1096,-650.12 1139.85,-632.27 1178.91,-621 1218.1,-609.69 1229,-611.45 1268.91,-603 1282.27,-600.17 1296.92,-596.93 1309.76,-594.04"/>
<polygon fill="black" stroke="black" points="1310.63,-597.43 1319.61,-591.81 1309.08,-590.6 1310.63,-597.43"/>
</g>
<!-- node27&#45;&gt;node52 -->
<g id="edge58" class="edge">
<title>node27&#45;&gt;node52</title>
<path fill="none" stroke="black" d="M1062.31,-656.27C1073.84,-643.4 1089.15,-623.6 1095.91,-603 1104.14,-577.9 1103.62,-547.53 1101.66,-526.1"/>
<polygon fill="black" stroke="black" points="1105.13,-525.64 1100.58,-516.08 1098.17,-526.4 1105.13,-525.64"/>
</g>
<!-- node28&#45;&gt;node27 -->
<g id="edge64" class="edge">
<title>node28&#45;&gt;node27</title>
<path fill="none" stroke="black" d="M934.65,-740.8C959.22,-726.09 994.42,-705.02 1019.04,-690.28"/>
<polygon fill="black" stroke="black" points="1021.13,-693.11 1027.91,-684.97 1017.53,-687.11 1021.13,-693.11"/>
<text text-anchor="middle" x="992.91" y="-711.8" font-family="serif" font-size="14.00">16</text>
</g>
<!-- node28&#45;&gt;node30 -->
<g id="edge62" class="edge">
<title>node28&#45;&gt;node30</title>
<path fill="none" stroke="black" d="M948.71,-774.28C989.44,-787.92 1052.43,-809.14 1106.91,-828 1110.04,-829.08 1113.29,-830.22 1116.55,-831.36"/>
<polygon fill="black" stroke="black" points="1115.66,-834.76 1126.25,-834.78 1117.98,-828.15 1115.66,-834.76"/>
<text text-anchor="middle" x="1058.91" y="-798.8" font-family="serif" font-size="14.00">16</text>
</g>
<!-- node31 -->
<g id="node32" class="node">
<title>node31</title>
<ellipse fill="none" stroke="black" cx="1129.91" cy="-411" rx="36.29" ry="18"/>
<text text-anchor="middle" x="1129.91" y="-407.3" font-family="serif" font-size="14.00">Select</text>
</g>
<!-- node28&#45;&gt;node31 -->
<g id="edge60" class="edge">
<title>node28&#45;&gt;node31</title>
<path fill="none" stroke="black" d="M899.89,-740.9C888.67,-705.86 868.31,-624.39 898.91,-567 939.45,-490.98 1035.67,-445.64 1090.27,-425.14"/>
<polygon fill="black" stroke="black" points="1091.77,-428.32 1099.96,-421.6 1089.37,-421.74 1091.77,-428.32"/>
<text text-anchor="middle" x="906.91" y="-581.3" font-family="serif" font-size="14.00">16</text>
</g>
<!-- node64 -->
<g id="node65" class="node">
<title>node64</title>
<ellipse fill="none" stroke="black" cx="765.91" cy="-672" rx="57.39" ry="18"/>
<text text-anchor="middle" x="765.91" y="-668.3" font-family="serif" font-size="14.00">SignedMul</text>
</g>
<!-- node28&#45;&gt;node64 -->
<g id="edge84" class="edge">
<title>node28&#45;&gt;node64</title>
<path fill="none" stroke="black" d="M862.98,-743.68C849.05,-738.16 833.86,-731.19 820.91,-723 809.21,-715.59 797.65,-705.61 788.18,-696.51"/>
<polygon fill="black" stroke="black" points="790.63,-694.02 781.06,-689.47 785.71,-698.99 790.63,-694.02"/>
<text text-anchor="middle" x="828.91" y="-711.8" font-family="serif" font-size="14.00">16</text>
</g>
<!-- node73 -->
<g id="node74" class="node">
<title>node73</title>
<ellipse fill="none" stroke="black" cx="1188.91" cy="-672" rx="57.39" ry="18"/>
<text text-anchor="middle" x="1188.91" y="-668.3" font-family="serif" font-size="14.00">SignedMul</text>
</g>
<!-- node28&#45;&gt;node73 -->
<g id="edge89" class="edge">
<title>node28&#45;&gt;node73</title>
<path fill="none" stroke="black" d="M948.61,-743.46C951.74,-742.58 954.87,-741.74 957.91,-741 1006.04,-729.27 1020.26,-736.55 1067.91,-723 1096.16,-714.97 1126.71,-702.31 1150.05,-691.74"/>
<polygon fill="black" stroke="black" points="1151.64,-694.86 1159.26,-687.5 1148.71,-688.5 1151.64,-694.86"/>
<text text-anchor="middle" x="1115.91" y="-711.8" font-family="serif" font-size="14.00">16</text>
</g>
<!-- node29 -->
<g id="node30" class="node">
<title>node29</title>
<path fill="none" stroke="black" d="M1085.41,-864C1085.41,-864 946.41,-864 946.41,-864 940.41,-864 934.41,-858 934.41,-852 934.41,-852 934.41,-840 934.41,-840 934.41,-834 940.41,-828 946.41,-828 946.41,-828 1085.41,-828 1085.41,-828 1091.41,-828 1097.41,-834 1097.41,-840 1097.41,-840 1097.41,-852 1097.41,-852 1097.41,-858 1091.41,-864 1085.41,-864"/>
<text text-anchor="middle" x="1015.91" y="-842.3" font-family="serif" font-size="14.00">16&#39;b0000000000000000</text>
</g>
<!-- node29&#45;&gt;node28 -->
<g id="edge21" class="edge">
<title>node29&#45;&gt;node28</title>
<path fill="none" stroke="black" d="M993.65,-827.8C977.1,-815.01 954.33,-797.42 936.14,-783.36"/>
<polygon fill="black" stroke="black" points="938.19,-780.52 928.14,-777.18 933.91,-786.06 938.19,-780.52"/>
<text text-anchor="middle" x="974.91" y="-798.8" font-family="serif" font-size="14.00">16</text>
</g>
<!-- node30&#45;&gt;node28 -->
<g id="edge63" class="edge">
<title>node30&#45;&gt;node28</title>
<path fill="none" stroke="black" d="M1135.61,-830.61C1119.24,-819.14 1094.69,-803.61 1070.91,-795 1025.9,-778.7 1009.3,-787.72 958.5,-776.83"/>
<polygon fill="black" stroke="black" points="959.14,-773.38 948.61,-774.55 957.57,-780.2 959.14,-773.38"/>
</g>
<!-- node31&#45;&gt;node30 -->
<g id="edge61" class="edge">
<title>node31&#45;&gt;node30</title>
<path fill="none" stroke="black" d="M1134.07,-428.92C1137.2,-442.6 1141.24,-462.41 1142.91,-480 1151.75,-573.34 1108.71,-597.33 1122.91,-690 1124.71,-701.74 1136.22,-729.43 1138.91,-741 1144.9,-766.76 1149.23,-796.64 1151.86,-817.75"/>
<polygon fill="black" stroke="black" points="1148.42,-818.41 1153.09,-827.92 1155.37,-817.57 1148.42,-818.41"/>
</g>
<!-- node32 -->
<g id="node33" class="node">
<title>node32</title>
<ellipse fill="none" stroke="black" cx="1648.91" cy="-498" rx="28.7" ry="18"/>
<text text-anchor="middle" x="1648.91" y="-494.3" font-family="serif" font-size="14.00">And</text>
</g>
<!-- node32&#45;&gt;node25 -->
<g id="edge69" class="edge">
<title>node32&#45;&gt;node25</title>
<path fill="none" stroke="black" d="M1648.91,-479.8C1648.91,-468.16 1648.91,-452.55 1648.91,-439.24"/>
<polygon fill="black" stroke="black" points="1652.41,-439.18 1648.91,-429.18 1645.41,-439.18 1652.41,-439.18"/>
</g>
<!-- node32&#45;&gt;node31 -->
<g id="edge55" class="edge">
<title>node32&#45;&gt;node31</title>
<path fill="none" stroke="black" d="M1627.21,-486C1621.98,-483.71 1616.33,-481.54 1610.91,-480 1443.98,-432.75 1395.32,-455.78 1223.91,-429 1207.38,-426.42 1189.28,-423.23 1173.41,-420.31"/>
<polygon fill="black" stroke="black" points="1173.81,-416.83 1163.34,-418.45 1172.54,-423.71 1173.81,-416.83"/>
</g>
<!-- node33 -->
<g id="node34" class="node">
<title>node33</title>
<ellipse fill="none" stroke="black" cx="1762.91" cy="-585" rx="27" ry="18"/>
<text text-anchor="middle" x="1762.91" y="-581.3" font-family="serif" font-size="14.00">Eq</text>
</g>
<!-- node33&#45;&gt;node32 -->
<g id="edge53" class="edge">
<title>node33&#45;&gt;node32</title>
<path fill="none" stroke="black" d="M1745.6,-571.09C1726.79,-557.07 1696.54,-534.52 1674.89,-518.37"/>
<polygon fill="black" stroke="black" points="1676.87,-515.48 1666.76,-512.31 1672.69,-521.1 1676.87,-515.48"/>
</g>
<!-- node48 -->
<g id="node49" class="node">
<title>node48</title>
<ellipse fill="none" stroke="black" cx="1872.91" cy="-498" rx="36.29" ry="18"/>
<text text-anchor="middle" x="1872.91" y="-494.3" font-family="serif" font-size="14.00">Select</text>
</g>
<!-- node33&#45;&gt;node48 -->
<g id="edge41" class="edge">
<title>node33&#45;&gt;node48</title>
<path fill="none" stroke="black" d="M1773.31,-568.11C1780.86,-557.47 1791.83,-543.7 1803.91,-534 1813.47,-526.32 1824.98,-519.67 1835.84,-514.29"/>
<polygon fill="black" stroke="black" points="1837.6,-517.33 1845.15,-509.89 1834.61,-511 1837.6,-517.33"/>
</g>
<!-- node34 -->
<g id="node35" class="node">
<title>node34</title>
<ellipse fill="none" stroke="black" cx="1938.91" cy="-672" rx="27.9" ry="18"/>
<text text-anchor="middle" x="1938.91" y="-668.3" font-family="serif" font-size="14.00">Add</text>
</g>
<!-- node34&#45;&gt;node33 -->
<g id="edge51" class="edge">
<title>node34&#45;&gt;node33</title>
<path fill="none" stroke="black" d="M1917.95,-660.01C1913.11,-657.78 1907.91,-655.62 1902.91,-654 1862.04,-640.72 1845.36,-657.08 1807.91,-636 1796.73,-629.71 1786.86,-619.61 1779.24,-610.14"/>
<polygon fill="black" stroke="black" points="1781.96,-607.94 1773.14,-602.08 1776.38,-612.16 1781.96,-607.94"/>
</g>
<!-- node34&#45;&gt;node48 -->
<g id="edge43" class="edge">
<title>node34&#45;&gt;node48</title>
<path fill="none" stroke="black" d="M1917.58,-659.79C1890.61,-645.11 1846.6,-619.33 1837.91,-603 1824.22,-577.28 1839.38,-545.18 1853.8,-523.49"/>
<polygon fill="black" stroke="black" points="1856.76,-525.36 1859.64,-515.17 1851.03,-521.34 1856.76,-525.36"/>
</g>
<!-- node35&#45;&gt;node34 -->
<g id="edge49" class="edge">
<title>node35&#45;&gt;node34</title>
<path fill="none" stroke="black" d="M1825.65,-740.8C1850.22,-726.09 1885.42,-705.02 1910.04,-690.28"/>
<polygon fill="black" stroke="black" points="1912.13,-693.11 1918.91,-684.97 1908.53,-687.11 1912.13,-693.11"/>
<text text-anchor="middle" x="1883.91" y="-711.8" font-family="serif" font-size="14.00">16</text>
</g>
<!-- node35&#45;&gt;node37 -->
<g id="edge47" class="edge">
<title>node35&#45;&gt;node37</title>
<path fill="none" stroke="black" d="M1839.58,-774.68C1842.72,-775.53 1845.85,-776.32 1848.91,-777 1913.16,-791.29 1934.08,-772.44 1995.91,-795 2007.37,-799.18 2008.23,-804.1 2018.91,-810 2031.58,-817 2045.89,-823.85 2058.65,-829.61"/>
<polygon fill="black" stroke="black" points="2057.5,-832.92 2068.06,-833.78 2060.34,-826.53 2057.5,-832.92"/>
<text text-anchor="middle" x="2026.91" y="-798.8" font-family="serif" font-size="14.00">16</text>
</g>
<!-- node38 -->
<g id="node39" class="node">
<title>node38</title>
<ellipse fill="none" stroke="black" cx="1954.91" cy="-411" rx="36.29" ry="18"/>
<text text-anchor="middle" x="1954.91" y="-407.3" font-family="serif" font-size="14.00">Select</text>
</g>
<!-- node35&#45;&gt;node38 -->
<g id="edge45" class="edge">
<title>node35&#45;&gt;node38</title>
<path fill="none" stroke="black" d="M1769.83,-740.89C1753.13,-728.81 1732.87,-711.05 1721.91,-690 1696.56,-641.32 1686.26,-616.04 1710.91,-567 1751.49,-486.25 1855.72,-442.41 1913.97,-423.5"/>
<polygon fill="black" stroke="black" points="1915.11,-426.82 1923.6,-420.47 1913.01,-420.14 1915.11,-426.82"/>
<text text-anchor="middle" x="1718.91" y="-581.3" font-family="serif" font-size="14.00">16</text>
</g>
<!-- node71 -->
<g id="node72" class="node">
<title>node71</title>
<ellipse fill="none" stroke="black" cx="1228.91" cy="-498" rx="27.9" ry="18"/>
<text text-anchor="middle" x="1228.91" y="-494.3" font-family="serif" font-size="14.00">Add</text>
</g>
<!-- node35&#45;&gt;node71 -->
<g id="edge88" class="edge">
<title>node35&#45;&gt;node71</title>
<path fill="none" stroke="black" d="M1754.18,-748.17C1741.88,-745.58 1728.4,-742.96 1715.91,-741 1639.54,-729.04 1612.58,-756.5 1542.91,-723 1504.11,-704.34 1505.83,-683.96 1474.91,-654 1434.03,-614.38 1428.46,-598.3 1380.91,-567 1334.21,-536.26 1316.87,-539.01 1265.91,-516 1264.12,-515.19 1262.29,-514.36 1260.44,-513.52"/>
<polygon fill="black" stroke="black" points="1261.74,-510.27 1251.19,-509.3 1258.83,-516.64 1261.74,-510.27"/>
<text text-anchor="middle" x="1463.91" y="-624.8" font-family="serif" font-size="14.00">16</text>
</g>
<!-- node79 -->
<g id="node80" class="node">
<title>node79</title>
<ellipse fill="none" stroke="black" cx="1578.91" cy="-672" rx="57.39" ry="18"/>
<text text-anchor="middle" x="1578.91" y="-668.3" font-family="serif" font-size="14.00">SignedMul</text>
</g>
<!-- node35&#45;&gt;node79 -->
<g id="edge97" class="edge">
<title>node35&#45;&gt;node79</title>
<path fill="none" stroke="black" d="M1754.19,-748.52C1729.67,-742.47 1698.56,-733.74 1671.91,-723 1651.68,-714.85 1630.17,-703.47 1612.94,-693.63"/>
<polygon fill="black" stroke="black" points="1614.24,-690.35 1603.84,-688.35 1610.73,-696.4 1614.24,-690.35"/>
<text text-anchor="middle" x="1679.91" y="-711.8" font-family="serif" font-size="14.00">16</text>
</g>
<!-- node36 -->
<g id="node37" class="node">
<title>node36</title>
<path fill="none" stroke="black" d="M2028.41,-864C2028.41,-864 1889.41,-864 1889.41,-864 1883.41,-864 1877.41,-858 1877.41,-852 1877.41,-852 1877.41,-840 1877.41,-840 1877.41,-834 1883.41,-828 1889.41,-828 1889.41,-828 2028.41,-828 2028.41,-828 2034.41,-828 2040.41,-834 2040.41,-840 2040.41,-840 2040.41,-852 2040.41,-852 2040.41,-858 2034.41,-864 2028.41,-864"/>
<text text-anchor="middle" x="1958.91" y="-842.3" font-family="serif" font-size="14.00">16&#39;b0000000000000000</text>
</g>
<!-- node36&#45;&gt;node35 -->
<g id="edge24" class="edge">
<title>node36&#45;&gt;node35</title>
<path fill="none" stroke="black" d="M1926.13,-827.8C1900.79,-814.51 1865.56,-796.02 1838.29,-781.71"/>
<polygon fill="black" stroke="black" points="1839.85,-778.58 1829.37,-777.03 1836.6,-784.78 1839.85,-778.58"/>
<text text-anchor="middle" x="1894.91" y="-798.8" font-family="serif" font-size="14.00">16</text>
</g>
<!-- node37&#45;&gt;node35 -->
<g id="edge48" class="edge">
<title>node37&#45;&gt;node35</title>
<path fill="none" stroke="black" d="M2067.48,-834.07C2061.72,-831.94 2055.65,-829.8 2049.91,-828 1965,-801.28 1939.18,-802.54 1849.46,-777.05"/>
<polygon fill="black" stroke="black" points="1850.27,-773.64 1839.69,-774.24 1848.33,-780.37 1850.27,-773.64"/>
</g>
<!-- node38&#45;&gt;node37 -->
<g id="edge46" class="edge">
<title>node38&#45;&gt;node37</title>
<path fill="none" stroke="black" d="M1979.81,-424.19C2004.26,-438.11 2037.91,-463.38 2037.91,-497 2037.91,-629.5 2037.91,-629.5 2037.91,-629.5 2037.91,-699.96 2066.74,-779.2 2083.39,-819.09"/>
<polygon fill="black" stroke="black" points="2080.2,-820.53 2087.34,-828.36 2086.64,-817.79 2080.2,-820.53"/>
</g>
<!-- node39 -->
<g id="node40" class="node">
<title>node39</title>
<ellipse fill="none" stroke="black" cx="2092.91" cy="-585" rx="27" ry="18"/>
<text text-anchor="middle" x="2092.91" y="-581.3" font-family="serif" font-size="14.00">Eq</text>
</g>
<!-- node39&#45;&gt;node32 -->
<g id="edge54" class="edge">
<title>node39&#45;&gt;node32</title>
<path fill="none" stroke="black" d="M2068.01,-577.73C2053.71,-574.27 2035.37,-570.06 2018.91,-567 1963.3,-556.66 1948.64,-558.68 1892.91,-549 1818.89,-536.14 1732.95,-517.7 1685.36,-507.18"/>
<polygon fill="black" stroke="black" points="1686.05,-503.75 1675.53,-505 1684.53,-510.59 1686.05,-503.75"/>
</g>
<!-- node39&#45;&gt;node38 -->
<g id="edge40" class="edge">
<title>node39&#45;&gt;node38</title>
<path fill="none" stroke="black" d="M2092.53,-566.86C2090.99,-538.28 2083.82,-480.73 2051.91,-447 2038.14,-432.45 2017.88,-423.93 1999.43,-418.95"/>
<polygon fill="black" stroke="black" points="2000.25,-415.55 1989.71,-416.6 1998.6,-422.35 2000.25,-415.55"/>
</g>
<!-- node44 -->
<g id="node45" class="node">
<title>node44</title>
<ellipse fill="none" stroke="black" cx="2274.91" cy="-498" rx="36.29" ry="18"/>
<text text-anchor="middle" x="2274.91" y="-494.3" font-family="serif" font-size="14.00">Select</text>
</g>
<!-- node39&#45;&gt;node44 -->
<g id="edge30" class="edge">
<title>node39&#45;&gt;node44</title>
<path fill="none" stroke="black" d="M2114.5,-573.92C2145.45,-559.46 2202.75,-532.7 2239.83,-515.38"/>
<polygon fill="black" stroke="black" points="2241.67,-518.39 2249.25,-510.98 2238.71,-512.04 2241.67,-518.39"/>
</g>
<!-- node40 -->
<g id="node41" class="node">
<title>node40</title>
<ellipse fill="none" stroke="black" cx="2274.91" cy="-672" rx="27.9" ry="18"/>
<text text-anchor="middle" x="2274.91" y="-668.3" font-family="serif" font-size="14.00">Add</text>
</g>
<!-- node40&#45;&gt;node39 -->
<g id="edge38" class="edge">
<title>node40&#45;&gt;node39</title>
<path fill="none" stroke="black" d="M2252.83,-660.55C2248.23,-658.38 2243.42,-656.11 2238.91,-654 2199.33,-635.44 2153.65,-614.19 2124.07,-600.46"/>
<polygon fill="black" stroke="black" points="2125.24,-597.14 2114.69,-596.1 2122.29,-603.49 2125.24,-597.14"/>
</g>
<!-- node40&#45;&gt;node44 -->
<g id="edge32" class="edge">
<title>node40&#45;&gt;node44</title>
<path fill="none" stroke="black" d="M2286.01,-655.42C2294.7,-642.18 2306.11,-622.32 2310.91,-603 2314.77,-587.47 2314.77,-582.53 2310.91,-567 2307.14,-551.81 2299.28,-536.29 2291.87,-523.91"/>
<polygon fill="black" stroke="black" points="2294.63,-521.74 2286.36,-515.12 2288.7,-525.45 2294.63,-521.74"/>
</g>
<!-- node41&#45;&gt;node40 -->
<g id="edge36" class="edge">
<title>node41&#45;&gt;node40</title>
<path fill="none" stroke="black" d="M1706.72,-748.11C1719.29,-745.48 1733.11,-742.86 1745.91,-741 1963.9,-709.31 2027.16,-750.72 2238.91,-690 2240.8,-689.46 2242.72,-688.82 2244.64,-688.13"/>
<polygon fill="black" stroke="black" points="2246.13,-691.3 2254.03,-684.25 2243.46,-684.83 2246.13,-691.3"/>
<text text-anchor="middle" x="2164.91" y="-711.8" font-family="serif" font-size="14.00">16</text>
</g>
<!-- node41&#45;&gt;node43 -->
<g id="edge34" class="edge">
<title>node41&#45;&gt;node43</title>
<path fill="none" stroke="black" d="M1641.64,-777.06C1635.68,-782.35 1629.61,-788.52 1624.91,-795 1619.77,-802.1 1615.47,-810.59 1612.08,-818.54"/>
<polygon fill="black" stroke="black" points="1608.82,-817.26 1608.4,-827.84 1615.33,-819.83 1608.82,-817.26"/>
<text text-anchor="middle" x="1632.91" y="-798.8" font-family="serif" font-size="14.00">16</text>
</g>
<!-- node62 -->
<g id="node63" class="node">
<title>node62</title>
<ellipse fill="none" stroke="black" cx="765.91" cy="-498" rx="27.9" ry="18"/>
<text text-anchor="middle" x="765.91" y="-494.3" font-family="serif" font-size="14.00">Add</text>
</g>
<!-- node41&#45;&gt;node62 -->
<g id="edge83" class="edge">
<title>node41&#45;&gt;node62</title>
<path fill="none" stroke="black" d="M1621.21,-743.2C1618.41,-742.41 1615.63,-741.67 1612.91,-741 1473.45,-706.85 1423.07,-752.71 1293.91,-690 1272.69,-679.7 1276.18,-664.2 1254.91,-654 1117.13,-587.93 1054.6,-664.93 914.91,-603 891.81,-592.76 891.32,-581.89 870.91,-567 845.73,-548.63 815.79,-529.49 794.33,-516.21"/>
<polygon fill="black" stroke="black" points="796.05,-513.16 785.7,-510.9 792.38,-519.12 796.05,-513.16"/>
<text text-anchor="middle" x="1214.91" y="-624.8" font-family="serif" font-size="14.00">16</text>
</g>
<!-- node77 -->
<g id="node78" class="node">
<title>node77</title>
<ellipse fill="none" stroke="black" cx="1573.91" cy="-498" rx="27.9" ry="18"/>
<text text-anchor="middle" x="1573.91" y="-494.3" font-family="serif" font-size="14.00">Add</text>
</g>
<!-- node41&#45;&gt;node77 -->
<g id="edge96" class="edge">
<title>node41&#45;&gt;node77</title>
<path fill="none" stroke="black" d="M1661.84,-740.92C1657.22,-706.6 1644.16,-627.39 1615.91,-567 1608.81,-551.83 1599.07,-535.85 1590.76,-523.19"/>
<polygon fill="black" stroke="black" points="1593.49,-520.98 1585.01,-514.62 1587.68,-524.88 1593.49,-520.98"/>
<text text-anchor="middle" x="1647.91" y="-624.8" font-family="serif" font-size="14.00">16</text>
</g>
<!-- node42 -->
<g id="node43" class="node">
<title>node42</title>
<path fill="none" stroke="black" d="M1808.41,-864C1808.41,-864 1669.41,-864 1669.41,-864 1663.41,-864 1657.41,-858 1657.41,-852 1657.41,-852 1657.41,-840 1657.41,-840 1657.41,-834 1663.41,-828 1669.41,-828 1669.41,-828 1808.41,-828 1808.41,-828 1814.41,-828 1820.41,-834 1820.41,-840 1820.41,-840 1820.41,-852 1820.41,-852 1820.41,-858 1814.41,-864 1808.41,-864"/>
<text text-anchor="middle" x="1738.91" y="-842.3" font-family="serif" font-size="14.00">16&#39;b0000000000000000</text>
</g>
<!-- node42&#45;&gt;node41 -->
<g id="edge27" class="edge">
<title>node42&#45;&gt;node41</title>
<path fill="none" stroke="black" d="M1723.73,-827.8C1712.86,-815.47 1698.04,-798.68 1685.87,-784.89"/>
<polygon fill="black" stroke="black" points="1688.31,-782.36 1679.07,-777.18 1683.06,-786.99 1688.31,-782.36"/>
<text text-anchor="middle" x="1712.91" y="-798.8" font-family="serif" font-size="14.00">16</text>
</g>
<!-- node43&#45;&gt;node41 -->
<g id="edge35" class="edge">
<title>node43&#45;&gt;node41</title>
<path fill="none" stroke="black" d="M1621.78,-830.27C1628.4,-824.46 1635.53,-817.4 1640.91,-810 1646.1,-802.86 1650.55,-794.36 1654.1,-786.41"/>
<polygon fill="black" stroke="black" points="1657.36,-787.69 1657.99,-777.11 1650.9,-784.99 1657.36,-787.69"/>
</g>
<!-- node44&#45;&gt;node43 -->
<g id="edge33" class="edge">
<title>node44&#45;&gt;node43</title>
<path fill="none" stroke="black" d="M2302.31,-510.14C2329.74,-523.33 2367.91,-548.13 2367.91,-584 2367.91,-716.5 2367.91,-716.5 2367.91,-716.5 2367.91,-744.68 2371.32,-759.9 2348.91,-777 2327.47,-793.36 1890.75,-792.45 1863.91,-795 1767.67,-804.14 1742.5,-803.79 1648.91,-828 1645.96,-828.76 1642.93,-829.65 1639.9,-830.6"/>
<polygon fill="black" stroke="black" points="1638.7,-827.31 1630.35,-833.83 1640.95,-833.94 1638.7,-827.31"/>
</g>
<!-- node45 -->
<g id="node46" class="node">
<title>node45</title>
<path fill="none" stroke="black" d="M2289.41,-603C2289.41,-603 2150.41,-603 2150.41,-603 2144.41,-603 2138.41,-597 2138.41,-591 2138.41,-591 2138.41,-579 2138.41,-579 2138.41,-573 2144.41,-567 2150.41,-567 2150.41,-567 2289.41,-567 2289.41,-567 2295.41,-567 2301.41,-573 2301.41,-579 2301.41,-579 2301.41,-591 2301.41,-591 2301.41,-597 2295.41,-603 2289.41,-603"/>
<text text-anchor="middle" x="2219.91" y="-581.3" font-family="serif" font-size="14.00">16&#39;b0000000000000000</text>
</g>
<!-- node45&#45;&gt;node44 -->
<g id="edge31" class="edge">
<title>node45&#45;&gt;node44</title>
<path fill="none" stroke="black" d="M2231.04,-566.8C2239.02,-554.46 2249.9,-537.66 2258.82,-523.86"/>
<polygon fill="black" stroke="black" points="2261.86,-525.61 2264.36,-515.31 2255.99,-521.8 2261.86,-525.61"/>
<text text-anchor="middle" x="2257.91" y="-537.8" font-family="serif" font-size="14.00">16</text>
</g>
<!-- node46 -->
<g id="node47" class="node">
<title>node46</title>
<path fill="none" stroke="black" d="M2327.41,-777C2327.41,-777 2188.41,-777 2188.41,-777 2182.41,-777 2176.41,-771 2176.41,-765 2176.41,-765 2176.41,-753 2176.41,-753 2176.41,-747 2182.41,-741 2188.41,-741 2188.41,-741 2327.41,-741 2327.41,-741 2333.41,-741 2339.41,-747 2339.41,-753 2339.41,-753 2339.41,-765 2339.41,-765 2339.41,-771 2333.41,-777 2327.41,-777"/>
<text text-anchor="middle" x="2257.91" y="-755.3" font-family="serif" font-size="14.00">16&#39;b0000000000000001</text>
</g>
<!-- node46&#45;&gt;node40 -->
<g id="edge37" class="edge">
<title>node46&#45;&gt;node40</title>
<path fill="none" stroke="black" d="M2261.35,-740.8C2263.69,-729.09 2266.84,-713.34 2269.52,-699.97"/>
<polygon fill="black" stroke="black" points="2273,-700.38 2271.53,-689.89 2266.14,-699 2273,-700.38"/>
<text text-anchor="middle" x="2274.91" y="-711.8" font-family="serif" font-size="14.00">16</text>
</g>
<!-- node47 -->
<g id="node48" class="node">
<title>node47</title>
<path fill="none" stroke="black" d="M2217.41,-690C2217.41,-690 2078.41,-690 2078.41,-690 2072.41,-690 2066.41,-684 2066.41,-678 2066.41,-678 2066.41,-666 2066.41,-666 2066.41,-660 2072.41,-654 2078.41,-654 2078.41,-654 2217.41,-654 2217.41,-654 2223.41,-654 2229.41,-660 2229.41,-666 2229.41,-666 2229.41,-678 2229.41,-678 2229.41,-684 2223.41,-690 2217.41,-690"/>
<text text-anchor="middle" x="2147.91" y="-668.3" font-family="serif" font-size="14.00">16&#39;b0000000000000010</text>
</g>
<!-- node47&#45;&gt;node39 -->
<g id="edge39" class="edge">
<title>node47&#45;&gt;node39</title>
<path fill="none" stroke="black" d="M2136.78,-653.8C2128.7,-641.3 2117.64,-624.22 2108.65,-610.33"/>
<polygon fill="black" stroke="black" points="2111.47,-608.24 2103.1,-601.74 2105.59,-612.04 2111.47,-608.24"/>
<text text-anchor="middle" x="2130.91" y="-624.8" font-family="serif" font-size="14.00">16</text>
</g>
<!-- node48&#45;&gt;node38 -->
<g id="edge44" class="edge">
<title>node48&#45;&gt;node38</title>
<path fill="none" stroke="black" d="M1887.95,-481.41C1900.55,-468.35 1918.7,-449.53 1932.93,-434.78"/>
<polygon fill="black" stroke="black" points="1935.54,-437.12 1939.97,-427.49 1930.5,-432.26 1935.54,-437.12"/>
</g>
<!-- node49 -->
<g id="node50" class="node">
<title>node49</title>
<path fill="none" stroke="black" d="M1997.41,-603C1997.41,-603 1858.41,-603 1858.41,-603 1852.41,-603 1846.41,-597 1846.41,-591 1846.41,-591 1846.41,-579 1846.41,-579 1846.41,-573 1852.41,-567 1858.41,-567 1858.41,-567 1997.41,-567 1997.41,-567 2003.41,-567 2009.41,-573 2009.41,-579 2009.41,-579 2009.41,-591 2009.41,-591 2009.41,-597 2003.41,-603 1997.41,-603"/>
<text text-anchor="middle" x="1927.91" y="-581.3" font-family="serif" font-size="14.00">16&#39;b0000000000000000</text>
</g>
<!-- node49&#45;&gt;node48 -->
<g id="edge42" class="edge">
<title>node49&#45;&gt;node48</title>
<path fill="none" stroke="black" d="M1916.78,-566.8C1908.8,-554.46 1897.92,-537.66 1889,-523.86"/>
<polygon fill="black" stroke="black" points="1891.84,-521.8 1883.46,-515.31 1885.96,-525.61 1891.84,-521.8"/>
<text text-anchor="middle" x="1910.91" y="-537.8" font-family="serif" font-size="14.00">16</text>
</g>
<!-- node50 -->
<g id="node51" class="node">
<title>node50</title>
<path fill="none" stroke="black" d="M2008.41,-777C2008.41,-777 1869.41,-777 1869.41,-777 1863.41,-777 1857.41,-771 1857.41,-765 1857.41,-765 1857.41,-753 1857.41,-753 1857.41,-747 1863.41,-741 1869.41,-741 1869.41,-741 2008.41,-741 2008.41,-741 2014.41,-741 2020.41,-747 2020.41,-753 2020.41,-753 2020.41,-765 2020.41,-765 2020.41,-771 2014.41,-777 2008.41,-777"/>
<text text-anchor="middle" x="1938.91" y="-755.3" font-family="serif" font-size="14.00">16&#39;b0000000000000001</text>
</g>
<!-- node50&#45;&gt;node34 -->
<g id="edge50" class="edge">
<title>node50&#45;&gt;node34</title>
<path fill="none" stroke="black" d="M1938.91,-740.8C1938.91,-729.16 1938.91,-713.55 1938.91,-700.24"/>
<polygon fill="black" stroke="black" points="1942.41,-700.18 1938.91,-690.18 1935.41,-700.18 1942.41,-700.18"/>
<text text-anchor="middle" x="1946.91" y="-711.8" font-family="serif" font-size="14.00">16</text>
</g>
<!-- node51 -->
<g id="node52" class="node">
<title>node51</title>
<path fill="none" stroke="black" d="M1881.41,-690C1881.41,-690 1742.41,-690 1742.41,-690 1736.41,-690 1730.41,-684 1730.41,-678 1730.41,-678 1730.41,-666 1730.41,-666 1730.41,-660 1736.41,-654 1742.41,-654 1742.41,-654 1881.41,-654 1881.41,-654 1887.41,-654 1893.41,-660 1893.41,-666 1893.41,-666 1893.41,-678 1893.41,-678 1893.41,-684 1887.41,-690 1881.41,-690"/>
<text text-anchor="middle" x="1811.91" y="-668.3" font-family="serif" font-size="14.00">16&#39;b0000000000000011</text>
</g>
<!-- node51&#45;&gt;node33 -->
<g id="edge52" class="edge">
<title>node51&#45;&gt;node33</title>
<path fill="none" stroke="black" d="M1779.46,-653.73C1773.23,-648.86 1767.53,-642.95 1763.91,-636 1760.32,-629.12 1759.12,-620.95 1759.07,-613.23"/>
<polygon fill="black" stroke="black" points="1762.57,-613.31 1759.61,-603.14 1755.58,-612.94 1762.57,-613.31"/>
<text text-anchor="middle" x="1771.91" y="-624.8" font-family="serif" font-size="14.00">16</text>
</g>
<!-- node52&#45;&gt;node31 -->
<g id="edge59" class="edge">
<title>node52&#45;&gt;node31</title>
<path fill="none" stroke="black" d="M1104.23,-480.21C1108.75,-468.22 1114.91,-451.85 1120.06,-438.16"/>
<polygon fill="black" stroke="black" points="1123.35,-439.35 1123.6,-428.76 1116.8,-436.88 1123.35,-439.35"/>
</g>
<!-- node53 -->
<g id="node54" class="node">
<title>node53</title>
<path fill="none" stroke="black" d="M1074.41,-603C1074.41,-603 935.41,-603 935.41,-603 929.41,-603 923.41,-597 923.41,-591 923.41,-591 923.41,-579 923.41,-579 923.41,-573 929.41,-567 935.41,-567 935.41,-567 1074.41,-567 1074.41,-567 1080.41,-567 1086.41,-573 1086.41,-579 1086.41,-579 1086.41,-591 1086.41,-591 1086.41,-597 1080.41,-603 1074.41,-603"/>
<text text-anchor="middle" x="1004.91" y="-581.3" font-family="serif" font-size="14.00">16&#39;b0000000000000000</text>
</g>
<!-- node53&#45;&gt;node52 -->
<g id="edge57" class="edge">
<title>node53&#45;&gt;node52</title>
<path fill="none" stroke="black" d="M1023.73,-566.8C1038.1,-553.66 1058.02,-535.46 1073.6,-521.22"/>
<polygon fill="black" stroke="black" points="1076.28,-523.51 1081.3,-514.18 1071.56,-518.34 1076.28,-523.51"/>
<text text-anchor="middle" x="1064.91" y="-537.8" font-family="serif" font-size="14.00">16</text>
</g>
<!-- node54 -->
<g id="node55" class="node">
<title>node54</title>
<path fill="none" stroke="black" d="M1117.41,-777C1117.41,-777 978.41,-777 978.41,-777 972.41,-777 966.41,-771 966.41,-765 966.41,-765 966.41,-753 966.41,-753 966.41,-747 972.41,-741 978.41,-741 978.41,-741 1117.41,-741 1117.41,-741 1123.41,-741 1129.41,-747 1129.41,-753 1129.41,-753 1129.41,-765 1129.41,-765 1129.41,-771 1123.41,-777 1117.41,-777"/>
<text text-anchor="middle" x="1047.91" y="-755.3" font-family="serif" font-size="14.00">16&#39;b0000000000000001</text>
</g>
<!-- node54&#45;&gt;node27 -->
<g id="edge65" class="edge">
<title>node54&#45;&gt;node27</title>
<path fill="none" stroke="black" d="M1047.91,-740.8C1047.91,-729.16 1047.91,-713.55 1047.91,-700.24"/>
<polygon fill="black" stroke="black" points="1051.41,-700.18 1047.91,-690.18 1044.41,-700.18 1051.41,-700.18"/>
<text text-anchor="middle" x="1055.91" y="-711.8" font-family="serif" font-size="14.00">16</text>
</g>
<!-- node55 -->
<g id="node56" class="node">
<title>node55</title>
<path fill="none" stroke="black" d="M1453.41,-690C1453.41,-690 1314.41,-690 1314.41,-690 1308.41,-690 1302.41,-684 1302.41,-678 1302.41,-678 1302.41,-666 1302.41,-666 1302.41,-660 1308.41,-654 1314.41,-654 1314.41,-654 1453.41,-654 1453.41,-654 1459.41,-654 1465.41,-660 1465.41,-666 1465.41,-666 1465.41,-678 1465.41,-678 1465.41,-684 1459.41,-690 1453.41,-690"/>
<text text-anchor="middle" x="1383.91" y="-668.3" font-family="serif" font-size="14.00">16&#39;b0000000000000010</text>
</g>
<!-- node55&#45;&gt;node26 -->
<g id="edge67" class="edge">
<title>node55&#45;&gt;node26</title>
<path fill="none" stroke="black" d="M1376.02,-653.8C1370.47,-641.7 1362.94,-625.29 1356.68,-611.65"/>
<polygon fill="black" stroke="black" points="1359.75,-609.94 1352.39,-602.31 1353.38,-612.86 1359.75,-609.94"/>
<text text-anchor="middle" x="1373.91" y="-624.8" font-family="serif" font-size="14.00">16</text>
</g>
<!-- node56 -->
<g id="node57" class="node">
<title>node56</title>
<path fill="none" stroke="black" d="M2403.91,-342C2403.91,-342 2373.91,-342 2373.91,-342 2367.91,-342 2361.91,-336 2361.91,-330 2361.91,-330 2361.91,-318 2361.91,-318 2361.91,-312 2367.91,-306 2373.91,-306 2373.91,-306 2403.91,-306 2403.91,-306 2409.91,-306 2415.91,-312 2415.91,-318 2415.91,-318 2415.91,-330 2415.91,-330 2415.91,-336 2409.91,-342 2403.91,-342"/>
<text text-anchor="middle" x="2388.91" y="-320.3" font-family="serif" font-size="14.00">2&#39;b10</text>
</g>
<!-- node56&#45;&gt;node21 -->
<g id="edge72" class="edge">
<title>node56&#45;&gt;node21</title>
<path fill="none" stroke="black" d="M2394.58,-305.8C2398.47,-293.97 2403.72,-278.03 2408.16,-264.58"/>
<polygon fill="black" stroke="black" points="2411.54,-265.48 2411.35,-254.89 2404.89,-263.29 2411.54,-265.48"/>
<text text-anchor="middle" x="2407.91" y="-276.8" font-family="serif" font-size="14.00">2</text>
</g>
<!-- node57&#45;&gt;node21 -->
<g id="edge78" class="edge">
<title>node57&#45;&gt;node21</title>
<path fill="none" stroke="black" d="M2461.54,-828.21C2453.94,-811.38 2443.91,-784.54 2443.91,-760 2443.91,-760 2443.91,-760 2443.91,-323 2443.91,-302.61 2436.77,-280.71 2429.83,-264.25"/>
<polygon fill="black" stroke="black" points="2432.87,-262.47 2425.6,-254.76 2426.48,-265.32 2432.87,-262.47"/>
</g>
<!-- node58&#45;&gt;node57 -->
<g id="edge75" class="edge">
<title>node58&#45;&gt;node57</title>
<path fill="none" stroke="black" d="M2469.91,-914.8C2469.91,-903.16 2469.91,-887.55 2469.91,-874.24"/>
<polygon fill="black" stroke="black" points="2473.41,-874.18 2469.91,-864.18 2466.41,-874.18 2473.41,-874.18"/>
</g>
<!-- node59 -->
<g id="node60" class="node">
<title>node59</title>
<path fill="none" stroke="black" d="M2434.91,-1038C2434.91,-1038 2404.91,-1038 2404.91,-1038 2398.91,-1038 2392.91,-1032 2392.91,-1026 2392.91,-1026 2392.91,-1014 2392.91,-1014 2392.91,-1008 2398.91,-1002 2404.91,-1002 2404.91,-1002 2434.91,-1002 2434.91,-1002 2440.91,-1002 2446.91,-1008 2446.91,-1014 2446.91,-1014 2446.91,-1026 2446.91,-1026 2446.91,-1032 2440.91,-1038 2434.91,-1038"/>
<text text-anchor="middle" x="2419.91" y="-1016.3" font-family="serif" font-size="14.00">2&#39;b01</text>
</g>
<!-- node59&#45;&gt;node58 -->
<g id="edge74" class="edge">
<title>node59&#45;&gt;node58</title>
<path fill="none" stroke="black" d="M2418.81,-1001.8C2418.91,-991.66 2420.37,-978.92 2425.91,-969 2429.7,-962.2 2435.4,-956.24 2441.46,-951.26"/>
<polygon fill="black" stroke="black" points="2443.83,-953.85 2449.78,-945.08 2439.66,-948.23 2443.83,-953.85"/>
<text text-anchor="middle" x="2429.91" y="-972.8" font-family="serif" font-size="14.00">2</text>
</g>
<!-- node60 -->
<g id="node61" class="node">
<title>node60</title>
<path fill="none" stroke="black" d="M2412.91,-951C2412.91,-951 2382.91,-951 2382.91,-951 2376.91,-951 2370.91,-945 2370.91,-939 2370.91,-939 2370.91,-927 2370.91,-927 2370.91,-921 2376.91,-915 2382.91,-915 2382.91,-915 2412.91,-915 2412.91,-915 2418.91,-915 2424.91,-921 2424.91,-927 2424.91,-927 2424.91,-939 2424.91,-939 2424.91,-945 2418.91,-951 2412.91,-951"/>
<text text-anchor="middle" x="2397.91" y="-929.3" font-family="serif" font-size="14.00">2&#39;b11</text>
</g>
<!-- node60&#45;&gt;node57 -->
<g id="edge76" class="edge">
<title>node60&#45;&gt;node57</title>
<path fill="none" stroke="black" d="M2412.48,-914.8C2423.2,-902.15 2437.9,-884.79 2449.74,-870.81"/>
<polygon fill="black" stroke="black" points="2452.54,-872.92 2456.34,-863.03 2447.2,-868.39 2452.54,-872.92"/>
<text text-anchor="middle" x="2441.91" y="-885.8" font-family="serif" font-size="14.00">2</text>
</g>
<!-- node61 -->
<g id="node62" class="node">
<title>node61</title>
<path fill="none" stroke="black" d="M771.91,-1038C771.91,-1038 741.91,-1038 741.91,-1038 735.91,-1038 729.91,-1032 729.91,-1026 729.91,-1026 729.91,-1014 729.91,-1014 729.91,-1008 735.91,-1002 741.91,-1002 741.91,-1002 771.91,-1002 771.91,-1002 777.91,-1002 783.91,-1008 783.91,-1014 783.91,-1014 783.91,-1026 783.91,-1026 783.91,-1032 777.91,-1038 771.91,-1038"/>
<text text-anchor="middle" x="756.91" y="-1016.3" font-family="serif" font-size="14.00">2&#39;b11</text>
</g>
<!-- node61&#45;&gt;node9 -->
<g id="edge82" class="edge">
<title>node61&#45;&gt;node9</title>
<path fill="none" stroke="black" d="M756.91,-1001.8C756.91,-990.16 756.91,-974.55 756.91,-961.24"/>
<polygon fill="black" stroke="black" points="760.41,-961.18 756.91,-951.18 753.41,-961.18 760.41,-961.18"/>
<text text-anchor="middle" x="760.91" y="-972.8" font-family="serif" font-size="14.00">2</text>
</g>
<!-- node62&#45;&gt;node8 -->
<g id="edge111" class="edge">
<title>node62&#45;&gt;node8</title>
<path fill="none" stroke="black" d="M745.69,-485.43C723.78,-471.2 691.91,-444.87 691.91,-412 691.91,-412 691.91,-412 691.91,-90 691.91,-75.1 687.96,-59.02 683.66,-45.93"/>
<polygon fill="black" stroke="black" points="686.84,-44.43 680.2,-36.16 680.24,-46.76 686.84,-44.43"/>
</g>
<!-- node62&#45;&gt;node82 -->
<g id="edge107" class="edge">
<title>node62&#45;&gt;node82</title>
<path fill="none" stroke="black" d="M765.91,-479.8C765.91,-468.16 765.91,-452.55 765.91,-439.24"/>
<polygon fill="black" stroke="black" points="769.41,-439.18 765.91,-429.18 762.41,-439.18 769.41,-439.18"/>
</g>
<!-- node63 -->
<g id="node64" class="node">
<title>node63</title>
<ellipse fill="none" stroke="black" cx="765.91" cy="-585" rx="30.59" ry="18"/>
<text text-anchor="middle" x="765.91" y="-581.3" font-family="serif" font-size="14.00">Slice</text>
</g>
<!-- node63&#45;&gt;node62 -->
<g id="edge87" class="edge">
<title>node63&#45;&gt;node62</title>
<path fill="none" stroke="black" d="M765.91,-566.8C765.91,-555.16 765.91,-539.55 765.91,-526.24"/>
<polygon fill="black" stroke="black" points="769.41,-526.18 765.91,-516.18 762.41,-526.18 769.41,-526.18"/>
</g>
<!-- node64&#45;&gt;node63 -->
<g id="edge86" class="edge">
<title>node64&#45;&gt;node63</title>
<path fill="none" stroke="black" d="M765.91,-653.8C765.91,-642.16 765.91,-626.55 765.91,-613.24"/>
<polygon fill="black" stroke="black" points="769.41,-613.18 765.91,-603.18 762.41,-613.18 769.41,-613.18"/>
</g>
<!-- node65 -->
<g id="node66" class="node">
<title>node65</title>
<path fill="none" stroke="black" d="M833.41,-777C833.41,-777 694.41,-777 694.41,-777 688.41,-777 682.41,-771 682.41,-765 682.41,-765 682.41,-753 682.41,-753 682.41,-747 688.41,-741 694.41,-741 694.41,-741 833.41,-741 833.41,-741 839.41,-741 845.41,-747 845.41,-753 845.41,-753 845.41,-765 845.41,-765 845.41,-771 839.41,-777 833.41,-777"/>
<text text-anchor="middle" x="763.91" y="-755.3" font-family="serif" font-size="14.00">16&#39;b0000000000000010</text>
</g>
<!-- node65&#45;&gt;node64 -->
<g id="edge85" class="edge">
<title>node65&#45;&gt;node64</title>
<path fill="none" stroke="black" d="M764.32,-740.8C764.59,-729.16 764.96,-713.55 765.27,-700.24"/>
<polygon fill="black" stroke="black" points="768.77,-700.26 765.51,-690.18 761.77,-700.09 768.77,-700.26"/>
<text text-anchor="middle" x="772.91" y="-711.8" font-family="serif" font-size="14.00">16</text>
</g>
<!-- node66 -->
<g id="node67" class="node">
<title>node66</title>
<ellipse fill="none" stroke="black" cx="765.91" cy="-91" rx="27.9" ry="18"/>
<text text-anchor="middle" x="765.91" y="-87.3" font-family="serif" font-size="14.00">Add</text>
</g>
<!-- node66&#45;&gt;node8 -->
<g id="edge112" class="edge">
<title>node66&#45;&gt;node8</title>
<path fill="none" stroke="black" d="M748.42,-76.65C735.72,-66.95 718.22,-53.59 703.26,-42.17"/>
<polygon fill="black" stroke="black" points="705.33,-39.35 695.26,-36.06 701.09,-44.91 705.33,-39.35"/>
</g>
<!-- node67 -->
<g id="node68" class="node">
<title>node67</title>
<ellipse fill="none" stroke="black" cx="1058.91" cy="-164" rx="30.59" ry="18"/>
<text text-anchor="middle" x="1058.91" y="-160.3" font-family="serif" font-size="14.00">Slice</text>
</g>
<!-- node67&#45;&gt;node66 -->
<g id="edge106" class="edge">
<title>node67&#45;&gt;node66</title>
<path fill="none" stroke="black" d="M1031.08,-156.26C977.72,-143.33 861.06,-115.06 801.88,-100.72"/>
<polygon fill="black" stroke="black" points="802.41,-97.24 791.87,-98.29 800.76,-104.05 802.41,-97.24"/>
</g>
<!-- node68 -->
<g id="node69" class="node">
<title>node68</title>
<ellipse fill="none" stroke="black" cx="1102.91" cy="-237" rx="27" ry="18"/>
<text text-anchor="middle" x="1102.91" y="-233.3" font-family="serif" font-size="14.00">Shr</text>
</g>
<!-- node68&#45;&gt;node67 -->
<g id="edge105" class="edge">
<title>node68&#45;&gt;node67</title>
<path fill="none" stroke="black" d="M1092.93,-219.89C1087.41,-210.99 1080.45,-199.75 1074.26,-189.77"/>
<polygon fill="black" stroke="black" points="1077.1,-187.7 1068.86,-181.05 1071.15,-191.39 1077.1,-187.7"/>
</g>
<!-- node69 -->
<g id="node70" class="node">
<title>node69</title>
<ellipse fill="none" stroke="black" cx="1278.91" cy="-324" rx="57.39" ry="18"/>
<text text-anchor="middle" x="1278.91" y="-320.3" font-family="serif" font-size="14.00">SignedMul</text>
</g>
<!-- node69&#45;&gt;node68 -->
<g id="edge104" class="edge">
<title>node69&#45;&gt;node68</title>
<path fill="none" stroke="black" d="M1249.05,-308.58C1216.74,-292.98 1165.5,-268.23 1133.07,-252.56"/>
<polygon fill="black" stroke="black" points="1134.58,-249.41 1124.05,-248.21 1131.53,-255.71 1134.58,-249.41"/>
</g>
<!-- node70 -->
<g id="node71" class="node">
<title>node70</title>
<polygon fill="none" stroke="black" points="1252.09,-393 1305.73,-393 1324.83,-429 1232.99,-429 1252.09,-393"/>
<text text-anchor="middle" x="1278.91" y="-407.3" font-family="serif" font-size="14.00">Read</text>
</g>
<!-- node70&#45;&gt;node69 -->
<g id="edge95" class="edge">
<title>node70&#45;&gt;node69</title>
<path fill="none" stroke="black" d="M1278.91,-392.8C1278.91,-381.16 1278.91,-365.55 1278.91,-352.24"/>
<polygon fill="black" stroke="black" points="1282.41,-352.18 1278.91,-342.18 1275.41,-352.18 1282.41,-352.18"/>
</g>
<!-- node71&#45;&gt;node70 -->
<g id="edge93" class="edge">
<title>node71&#45;&gt;node70</title>
<path fill="none" stroke="black" d="M1238.31,-481.01C1245.46,-468.86 1255.44,-451.9 1263.72,-437.83"/>
<polygon fill="black" stroke="black" points="1266.81,-439.48 1268.86,-429.08 1260.77,-435.93 1266.81,-439.48"/>
</g>
<!-- node72 -->
<g id="node73" class="node">
<title>node72</title>
<ellipse fill="none" stroke="black" cx="1228.91" cy="-585" rx="30.59" ry="18"/>
<text text-anchor="middle" x="1228.91" y="-581.3" font-family="serif" font-size="14.00">Slice</text>
</g>
<!-- node72&#45;&gt;node71 -->
<g id="edge92" class="edge">
<title>node72&#45;&gt;node71</title>
<path fill="none" stroke="black" d="M1228.91,-566.8C1228.91,-555.16 1228.91,-539.55 1228.91,-526.24"/>
<polygon fill="black" stroke="black" points="1232.41,-526.18 1228.91,-516.18 1225.41,-526.18 1232.41,-526.18"/>
</g>
<!-- node73&#45;&gt;node72 -->
<g id="edge91" class="edge">
<title>node73&#45;&gt;node72</title>
<path fill="none" stroke="black" d="M1203.2,-654.37C1207.44,-648.8 1211.78,-642.39 1214.91,-636 1218.4,-628.88 1221.15,-620.74 1223.25,-613.14"/>
<polygon fill="black" stroke="black" points="1226.7,-613.78 1225.72,-603.23 1219.9,-612.09 1226.7,-613.78"/>
</g>
<!-- node74 -->
<g id="node75" class="node">
<title>node74</title>
<path fill="none" stroke="black" d="M1337.41,-777C1337.41,-777 1198.41,-777 1198.41,-777 1192.41,-777 1186.41,-771 1186.41,-765 1186.41,-765 1186.41,-753 1186.41,-753 1186.41,-747 1192.41,-741 1198.41,-741 1198.41,-741 1337.41,-741 1337.41,-741 1343.41,-741 1349.41,-747 1349.41,-753 1349.41,-753 1349.41,-765 1349.41,-765 1349.41,-771 1343.41,-777 1337.41,-777"/>
<text text-anchor="middle" x="1267.91" y="-755.3" font-family="serif" font-size="14.00">16&#39;b0000000000000011</text>
</g>
<!-- node74&#45;&gt;node73 -->
<g id="edge90" class="edge">
<title>node74&#45;&gt;node73</title>
<path fill="none" stroke="black" d="M1251.92,-740.8C1240.21,-728.19 1224.15,-710.92 1211.18,-696.96"/>
<polygon fill="black" stroke="black" points="1213.71,-694.54 1204.34,-689.6 1208.58,-699.3 1213.71,-694.54"/>
<text text-anchor="middle" x="1240.91" y="-711.8" font-family="serif" font-size="14.00">16</text>
</g>
<!-- node75 -->
<g id="node76" class="node">
<title>node75</title>
<polygon fill="none" stroke="black" points="1348.91,-516 1274.91,-516 1274.91,-480 1348.91,-480 1348.91,-516"/>
<text text-anchor="middle" x="1311.91" y="-494.3" font-family="serif" font-size="14.00">memory</text>
</g>
<!-- node75&#45;&gt;node70 -->
<g id="edge94" class="edge">
<title>node75&#45;&gt;node70</title>
<path fill="none" stroke="black" d="M1305.23,-479.8C1300.67,-468.05 1294.53,-452.24 1289.33,-438.84"/>
<polygon fill="black" stroke="black" points="1292.46,-437.23 1285.58,-429.18 1285.93,-439.76 1292.46,-437.23"/>
</g>
<!-- node76 -->
<g id="node77" class="node">
<title>node76</title>
<polygon fill="none" stroke="black" points="1377.09,-393 1430.73,-393 1449.83,-429 1357.99,-429 1377.09,-393"/>
<text text-anchor="middle" x="1403.91" y="-407.3" font-family="serif" font-size="14.00">Read</text>
</g>
<!-- node76&#45;&gt;node69 -->
<g id="edge103" class="edge">
<title>node76&#45;&gt;node69</title>
<path fill="none" stroke="black" d="M1378.61,-392.8C1358.93,-379.41 1331.5,-360.76 1310.39,-346.4"/>
<polygon fill="black" stroke="black" points="1312.3,-343.47 1302.06,-340.74 1308.36,-349.26 1312.3,-343.47"/>
</g>
<!-- node77&#45;&gt;node76 -->
<g id="edge101" class="edge">
<title>node77&#45;&gt;node76</title>
<path fill="none" stroke="black" d="M1552.38,-486.23C1526.08,-473.09 1480.96,-450.52 1447.34,-433.71"/>
<polygon fill="black" stroke="black" points="1448.7,-430.48 1438.19,-429.14 1445.57,-436.74 1448.7,-430.48"/>
</g>
<!-- node78 -->
<g id="node79" class="node">
<title>node78</title>
<ellipse fill="none" stroke="black" cx="1575.91" cy="-585" rx="30.59" ry="18"/>
<text text-anchor="middle" x="1575.91" y="-581.3" font-family="serif" font-size="14.00">Slice</text>
</g>
<!-- node78&#45;&gt;node77 -->
<g id="edge100" class="edge">
<title>node78&#45;&gt;node77</title>
<path fill="none" stroke="black" d="M1575.51,-566.8C1575.23,-555.16 1574.86,-539.55 1574.55,-526.24"/>
<polygon fill="black" stroke="black" points="1578.05,-526.09 1574.31,-516.18 1571.05,-526.26 1578.05,-526.09"/>
</g>
<!-- node79&#45;&gt;node78 -->
<g id="edge99" class="edge">
<title>node79&#45;&gt;node78</title>
<path fill="none" stroke="black" d="M1578.3,-653.8C1577.89,-642.16 1577.34,-626.55 1576.87,-613.24"/>
<polygon fill="black" stroke="black" points="1580.37,-613.05 1576.52,-603.18 1573.37,-613.29 1580.37,-613.05"/>
</g>
<!-- node80 -->
<g id="node81" class="node">
<title>node80</title>
<path fill="none" stroke="black" d="M1591.41,-777C1591.41,-777 1452.41,-777 1452.41,-777 1446.41,-777 1440.41,-771 1440.41,-765 1440.41,-765 1440.41,-753 1440.41,-753 1440.41,-747 1446.41,-741 1452.41,-741 1452.41,-741 1591.41,-741 1591.41,-741 1597.41,-741 1603.41,-747 1603.41,-753 1603.41,-753 1603.41,-765 1603.41,-765 1603.41,-771 1597.41,-777 1591.41,-777"/>
<text text-anchor="middle" x="1521.91" y="-755.3" font-family="serif" font-size="14.00">16&#39;b0000000000000010</text>
</g>
<!-- node80&#45;&gt;node79 -->
<g id="edge98" class="edge">
<title>node80&#45;&gt;node79</title>
<path fill="none" stroke="black" d="M1533.45,-740.8C1541.61,-728.62 1552.7,-712.09 1561.88,-698.4"/>
<polygon fill="black" stroke="black" points="1564.92,-700.14 1567.59,-689.89 1559.11,-696.24 1564.92,-700.14"/>
<text text-anchor="middle" x="1560.91" y="-711.8" font-family="serif" font-size="14.00">16</text>
</g>
<!-- node81 -->
<g id="node82" class="node">
<title>node81</title>
<polygon fill="none" stroke="black" points="1440.91,-516 1366.91,-516 1366.91,-480 1440.91,-480 1440.91,-516"/>
<text text-anchor="middle" x="1403.91" y="-494.3" font-family="serif" font-size="14.00">memory</text>
</g>
<!-- node81&#45;&gt;node76 -->
<g id="edge102" class="edge">
<title>node81&#45;&gt;node76</title>
<path fill="none" stroke="black" d="M1403.91,-479.8C1403.91,-468.16 1403.91,-452.55 1403.91,-439.24"/>
<polygon fill="black" stroke="black" points="1407.41,-439.18 1403.91,-429.18 1400.41,-439.18 1407.41,-439.18"/>
</g>
<!-- node82&#45;&gt;node66 -->
<g id="edge109" class="edge">
<title>node82&#45;&gt;node66</title>
<path fill="none" stroke="black" d="M765.91,-392.74C765.91,-375.57 765.91,-348.46 765.91,-325 765.91,-325 765.91,-325 765.91,-163 765.91,-148.65 765.91,-132.67 765.91,-119.51"/>
<polygon fill="black" stroke="black" points="769.41,-119.22 765.91,-109.22 762.41,-119.22 769.41,-119.22"/>
</g>
<!-- node83 -->
<g id="node84" class="node">
<title>node83</title>
<path fill="none" stroke="black" d="M459.41,-429C459.41,-429 320.41,-429 320.41,-429 314.41,-429 308.41,-423 308.41,-417 308.41,-417 308.41,-405 308.41,-405 308.41,-399 314.41,-393 320.41,-393 320.41,-393 459.41,-393 459.41,-393 465.41,-393 471.41,-399 471.41,-405 471.41,-405 471.41,-417 471.41,-417 471.41,-423 465.41,-429 459.41,-429"/>
<text text-anchor="middle" x="389.91" y="-407.3" font-family="serif" font-size="14.00">16&#39;b0000000000000000</text>
</g>
<!-- node83&#45;&gt;node0 -->
<g id="edge115" class="edge">
<title>node83&#45;&gt;node0</title>
<path fill="none" stroke="black" d="M389.91,-392.8C389.91,-381.16 389.91,-365.55 389.91,-352.24"/>
<polygon fill="black" stroke="black" points="393.41,-352.18 389.91,-342.18 386.41,-352.18 393.41,-352.18"/>
<text text-anchor="middle" x="397.91" y="-363.8" font-family="serif" font-size="14.00">16</text>
</g>
</g>
</svg>
